<svg id="visual" viewBox="0 0 960 540" width="960" height="540" xmlns="http://www.w3.org/2000/svg" xmlns:xlink="http://www.w3.org/1999/xlink" version="1.1"><path d="M0 389L96 366L192 355L288 406L384 382L480 406L576 344L672 370L768 338L864 324L960 364L960 541L864 541L768 541L672 541L576 541L480 541L384 541L288 541L192 541L96 541L0 541Z" fill="#f5730a"></path><path d="M0 448L96 374L192 383L288 391L384 386L480 408L576 423L672 385L768 407L864 442L960 375L960 541L864 541L768 541L672 541L576 541L480 541L384 541L288 541L192 541L96 541L0 541Z" fill="#da5b09"></path><path d="M0 436L96 400L192 398L288 405L384 415L480 404L576 402L672 461L768 438L864 422L960 411L960 541L864 541L768 541L672 541L576 541L480 541L384 541L288 541L192 541L96 541L0 541Z" fill="#be4407"></path><path d="M0 454L96 452L192 452L288 477L384 483L480 482L576 485L672 463L768 471L864 481L960 486L960 541L864 541L768 541L672 541L576 541L480 541L384 541L288 541L192 541L96 541L0 541Z" fill="#a32d04"></path><path d="M0 508L96 477L192 500L288 498L384 512L480 506L576 475L672 472L768 515L864 496L960 507L960 541L864 541L768 541L672 541L576 541L480 541L384 541L288 541L192 541L96 541L0 541Z" fill="#871400"></path></svg>