<svg id="visual" viewBox="0 0 960 540" width="960" height="540" xmlns="http://www.w3.org/2000/svg" xmlns:xlink="http://www.w3.org/1999/xlink" version="1.1"><path d="M0 463L11.5 462.7C23 462.3 46 461.7 68.8 463C91.7 464.3 114.3 467.7 137.2 467.8C160 468 183 465 205.8 462.5C228.7 460 251.3 458 274.2 457C297 456 320 456 342.8 456.8C365.7 457.7 388.3 459.3 411.2 460.3C434 461.3 457 461.7 480 461.2C503 460.7 526 459.3 548.8 459.3C571.7 459.3 594.3 460.7 617.2 461C640 461.3 663 460.7 685.8 459.5C708.7 458.3 731.3 456.7 754.2 456C777 455.3 800 455.7 822.8 456C845.7 456.3 868.3 456.7 891.2 457C914 457.3 937 457.7 948.5 457.8L960 458L960 541L948.5 541C937 541 914 541 891.2 541C868.3 541 845.7 541 822.8 541C800 541 777 541 754.2 541C731.3 541 708.7 541 685.8 541C663 541 640 541 617.2 541C594.3 541 571.7 541 548.8 541C526 541 503 541 480 541C457 541 434 541 411.2 541C388.3 541 365.7 541 342.8 541C320 541 297 541 274.2 541C251.3 541 228.7 541 205.8 541C183 541 160 541 137.2 541C114.3 541 91.7 541 68.8 541C46 541 23 541 11.5 541L0 541Z" fill="#f5730a"></path><path d="M0 485L11.5 486.5C23 488 46 491 68.8 491.3C91.7 491.7 114.3 489.3 137.2 488.8C160 488.3 183 489.7 205.8 489.7C228.7 489.7 251.3 488.3 274.2 487.3C297 486.3 320 485.7 342.8 484.8C365.7 484 388.3 483 411.2 483.7C434 484.3 457 486.7 480 486.7C503 486.7 526 484.3 548.8 484.5C571.7 484.7 594.3 487.3 617.2 489.3C640 491.3 663 492.7 685.8 493.5C708.7 494.3 731.3 494.7 754.2 495C777 495.3 800 495.7 822.8 495.2C845.7 494.7 868.3 493.3 891.2 491.5C914 489.7 937 487.3 948.5 486.2L960 485L960 541L948.5 541C937 541 914 541 891.2 541C868.3 541 845.7 541 822.8 541C800 541 777 541 754.2 541C731.3 541 708.7 541 685.8 541C663 541 640 541 617.2 541C594.3 541 571.7 541 548.8 541C526 541 503 541 480 541C457 541 434 541 411.2 541C388.3 541 365.7 541 342.8 541C320 541 297 541 274.2 541C251.3 541 228.7 541 205.8 541C183 541 160 541 137.2 541C114.3 541 91.7 541 68.8 541C46 541 23 541 11.5 541L0 541Z" fill="#be4407"></path><path d="M0 512L11.5 511.7C23 511.3 46 510.7 68.8 511.5C91.7 512.3 114.3 514.7 137.2 515.2C160 515.7 183 514.3 205.8 514.3C228.7 514.3 251.3 515.7 274.2 516C297 516.3 320 515.7 342.8 515C365.7 514.3 388.3 513.7 411.2 512.2C434 510.7 457 508.3 480 506.8C503 505.3 526 504.7 548.8 506.5C571.7 508.3 594.3 512.7 617.2 513C640 513.3 663 509.7 685.8 509.3C708.7 509 731.3 512 754.2 512.7C777 513.3 800 511.7 822.8 512.3C845.7 513 868.3 516 891.2 516.8C914 517.7 937 516.3 948.5 515.7L960 515L960 541L948.5 541C937 541 914 541 891.2 541C868.3 541 845.7 541 822.8 541C800 541 777 541 754.2 541C731.3 541 708.7 541 685.8 541C663 541 640 541 617.2 541C594.3 541 571.7 541 548.8 541C526 541 503 541 480 541C457 541 434 541 411.2 541C388.3 541 365.7 541 342.8 541C320 541 297 541 274.2 541C251.3 541 228.7 541 205.8 541C183 541 160 541 137.2 541C114.3 541 91.7 541 68.8 541C46 541 23 541 11.5 541L0 541Z" fill="#871400"></path></svg>